<svg xmlns="http://www.w3.org/2000/svg" viewBox="0 0 880 300" width="880" height="300"
     font-family="Inter, -apple-system, BlinkMacSystemFont, 'Segoe UI', Roboto, Helvetica, Arial, 'PingFang SC', 'Hiragino Sans GB', 'Microsoft YaHei', sans-serif"
     role="img" aria-label="Bison — Kubernetes 上的多租户 GPU 计费平台">
  <defs>
    <linearGradient id="hcd-name" x1="0" y1="0" x2="1" y2="1">
      <stop offset="0" stop-color="#4DA3FF"/>
      <stop offset="0.55" stop-color="#8985FF"/>
      <stop offset="1" stop-color="#2DC79A"/>
    </linearGradient>
  </defs>

  <rect x="0" y="0" width="880" height="300" fill="#1D1D1F"/>

  <g transform="translate(100 150)">
    <circle cx="0" cy="0" r="62" fill="url(#hcd-name)" fill-opacity="0.10" stroke="url(#hcd-name)" stroke-width="3"/>
    <line x1="44" y1="-44" x2="36" y2="-36" stroke="#2DC79A" stroke-width="3.5" stroke-linecap="round"/>
    <line x1="0" y1="-62" x2="0" y2="-50" stroke="#E0A33A" stroke-width="3.5" stroke-linecap="round"/>
    <line x1="-44" y1="-44" x2="-36" y2="-36" stroke="#FF6B52" stroke-width="3.5" stroke-linecap="round"/>
    <rect x="-26" y="-24" width="52" height="48" rx="11" fill="#8985FF" fill-opacity="0.18" stroke="#8985FF" stroke-width="2.2"/>
    <rect x="-13" y="-12" width="26" height="24" rx="5" fill="#8985FF" fill-opacity="0.28" stroke="#8985FF" stroke-width="1.4"/>
    <g stroke="#8985FF" stroke-width="2.2" stroke-linecap="round">
      <line x1="-12" y1="-24" x2="-12" y2="-32"/><line x1="0" y1="-24" x2="0" y2="-32"/><line x1="12" y1="-24" x2="12" y2="-32"/>
      <line x1="-12" y1="24" x2="-12" y2="32"/><line x1="0" y1="24" x2="0" y2="32"/><line x1="12" y1="24" x2="12" y2="32"/>
      <line x1="-26" y1="-10" x2="-34" y2="-10"/><line x1="-26" y1="0" x2="-34" y2="0"/><line x1="-26" y1="10" x2="-34" y2="10"/>
      <line x1="26" y1="-10" x2="34" y2="-10"/><line x1="26" y1="0" x2="34" y2="0"/><line x1="26" y1="10" x2="34" y2="10"/>
    </g>
  </g>

  <text x="200" y="128" font-size="82" font-weight="800" letter-spacing="-2" fill="url(#hcd-name)">Bison</text>

  <text x="202" y="170" font-size="24" font-weight="600" fill="#F5F5F7">Kubernetes 上的多租户 GPU 计费平台</text>
  <text x="202" y="200" font-size="17" font-weight="500" fill="#A1A1A8">预付余额 · 按用量计费 · 按团队隔离</text>

  <g font-size="13" font-weight="700" text-anchor="middle">
    <rect x="202" y="224" width="66" height="28" rx="14" fill="#2DC79A" fill-opacity="0.16" stroke="#2DC79A" stroke-width="1.3"/>
    <text x="235" y="243" fill="#2DC79A">健康</text>
    <rect x="278" y="224" width="66" height="28" rx="14" fill="#E0A33A" fill-opacity="0.16" stroke="#E0A33A" stroke-width="1.3"/>
    <text x="311" y="243" fill="#E0A33A">预警</text>
    <rect x="354" y="224" width="66" height="28" rx="14" fill="#FF6B52" fill-opacity="0.16" stroke="#FF6B52" stroke-width="1.3"/>
    <text x="387" y="243" fill="#FF6B52">停用</text>
    <text x="434" y="243" font-size="13" font-weight="500" text-anchor="start" fill="#A1A1A8">余额驱动</text>
  </g>
</svg>
